<?xml version="1.0" encoding="UTF-8"?>
<svg width="60px" height="60px" viewBox="0 0 60 60" version="1.1" xmlns="http://www.w3.org/2000/svg" xmlns:xlink="http://www.w3.org/1999/xlink">
    <!-- Generator: Sketch 53.1 (72631) - https://sketchapp.com -->
    <title>ghost_blue</title>
    <desc>Created with Sketch.</desc>
    <g id="ghost_blue" stroke="none" stroke-width="1" fill="none" fill-rule="evenodd">
        <g id="ghost" transform="translate(9.000000, 8.000000)" fill-rule="nonzero">
            <path d="M20.03925,0.0232206406 C8.76256818,0.583718861 0.131090909,10.253274 0.131090909,21.604484 L0.131090909,32.254911 L0.131090909,32.254911 C0.131090909,34.7774733 0.131090909,39.9625623 0.131090909,42.7652135 C0.131090909,43.7462456 1.10568182,44.3067438 1.94090909,43.7462456 L5.14293182,41.7843416 C6.39593182,41.0837189 7.92734091,41.0837189 9.18018182,41.7843416 L12.1037955,43.4659964 C13.3567955,44.1666192 14.8882045,44.1666192 16.1410455,43.4659964 L19.0646591,41.7843416 C20.3176591,41.0837189 21.8490682,41.0837189 23.1019091,41.7843416 L26.0255227,43.4659964 C27.2785227,44.1666192 28.8099318,44.1666192 30.0627727,43.4659964 L32.9863864,41.7843416 C34.2393864,41.0837189 35.7707955,41.0837189 37.0236364,41.7843416 L40.0864545,43.606121 C40.9218409,44.0264947 41.8962727,43.4659964 41.8962727,42.625089 C41.8962727,39.682153 41.8962727,34.4970641 41.8962727,32.1147865 L41.8962727,32.1147865 L41.8962727,20.9037011 C41.8964318,9.13211744 32.0119545,-0.53727758 20.03925,0.0232206406 Z" id="Path" fill="#4C50E2"></path>
            <path d="M2.91534091,21.0439858 C2.91534091,9.97302491 11.5468182,0.864128114 22.4058864,0.0232206406 C21.9882727,0.0232206406 21.4312955,0.0232206406 21.0136818,0.0232206406 C9.45859091,0.0232206406 0.131090909,9.41252669 0.131090909,21.0439858 C0.131090909,21.0439858 0.131090909,44.7272776 0.131090909,44.8675623 C1.38409091,44.8675623 2.21931818,44.3070641 2.9155,43.6062811 C2.91534091,41.0837189 2.91534091,21.0439858 2.91534091,21.0439858 Z" id="Path" fill="#4F47D2"></path>
            <path d="M28.6707273,18.2411744 C26.0255227,18.2411744 23.7980909,20.4833274 23.7980909,23.1460142 C23.7980909,25.8087011 26.0255227,28.0508541 28.6707273,28.0508541 C31.3159318,28.0508541 33.5433636,25.8087011 33.5433636,23.1460142 C33.5433636,20.4833274 31.3159318,18.2411744 28.6707273,18.2411744 Z M13.3567955,18.2411744 C10.7115909,18.2411744 8.48415909,20.4833274 8.48415909,23.1460142 C8.48415909,25.8087011 10.7115909,28.0508541 13.3567955,28.0508541 C16.002,28.0508541 18.2294318,25.8087011 18.2294318,23.1460142 C18.2294318,20.4833274 16.0018409,18.2411744 13.3567955,18.2411744 Z" id="Shape" fill="#E4E7E7"></path>
            <path d="M28.6707273,21.0439858 C27.5569318,21.0439858 26.5825,22.0250178 26.5825,23.1460142 C26.5825,24.2671708 27.5570909,25.2480427 28.6707273,25.2480427 C29.7843636,25.2480427 30.7589545,24.2670107 30.7589545,23.1460142 C30.7589545,22.0248577 29.7845227,21.0439858 28.6707273,21.0439858 Z M13.3567955,21.0439858 C12.243,21.0439858 11.2685682,22.0250178 11.2685682,23.1460142 C11.2685682,24.2671708 12.2431591,25.2480427 13.3567955,25.2480427 C14.4705909,25.2480427 15.4450227,24.2670107 15.4450227,23.1460142 C15.4450227,22.0248577 14.4704318,21.0439858 13.3567955,21.0439858 Z" id="Shape" fill="#324D5B"></path>
        </g>
    </g>
</svg>