<?xml version="1.0" encoding="UTF-8"?>
<svg width="60px" height="60px" viewBox="0 0 60 60" version="1.1" xmlns="http://www.w3.org/2000/svg" xmlns:xlink="http://www.w3.org/1999/xlink">
    <!-- Generator: Sketch 53.1 (72631) - https://sketchapp.com -->
    <title>pacman</title>
    <desc>Created with Sketch.</desc>
    <defs>
        <linearGradient x1="12.9467045%" y1="28.6307918%" x2="95.0206563%" y2="71.0065589%" id="linearGradient-1">
            <stop stop-color="#FFFFFF" stop-opacity="0.2" offset="0%"></stop>
            <stop stop-color="#FFFFFF" stop-opacity="0" offset="100%"></stop>
        </linearGradient>
    </defs>
    <g id="pacman" stroke="none" stroke-width="1" fill="none" fill-rule="evenodd">
        <rect id="Rectangle" fill="#012E52" x="0" y="0" width="60" height="60"></rect>
        <g transform="translate(9.000000, 8.000000)" fill-rule="nonzero">
            <path d="M23.9294319,22.5 L40.592966,10.1293945 C40.7910745,9.98200195 40.9237574,9.76042969 40.9600468,9.51416016 C40.9982553,9.26789062 40.9345745,9.01705078 40.7892426,8.81745117 C36.7310277,3.29589844 29.8431149,0 22.3610511,0 C10.046483,0 0.0291361702,10.0937109 0.0291361702,22.5 C0.0291361702,34.9062891 10.046483,45 22.3610511,45 C29.8432021,45 36.7310277,41.7041016 40.7892426,36.1825488 C40.9346617,35.9829492 40.9982553,35.7321094 40.9600468,35.4858398 C40.9236702,35.2395703 40.7909872,35.017998 40.592966,34.8706055 L23.9294319,22.5 Z" id="Path" fill="#303C42"></path>
            <path d="M22.3610511,43.1250293 C11.0733149,43.1250293 1.8901,33.8726953 1.8901,22.5 C1.8901,11.1273047 11.0733149,1.8749707 22.3610511,1.8749707 C28.8091298,1.8749707 34.9827702,4.65820312 38.717434,9.19274414 L21.8085106,21.7456348 C21.5704489,21.9222949 21.4305255,22.2024902 21.4305255,22.5 C21.4305255,22.7975098 21.5704489,23.0777051 21.8085106,23.2543652 L38.7173468,35.807168 C34.982683,40.3417969 28.8090426,43.1250293 22.3610511,43.1250293 Z" id="Path" fill="#FDD835"></path>
            <path d="M26.4755319,36.5625 C15.1877957,36.5625 6.00466809,27.310166 6.00466809,15.9374707 C6.00466809,13.2909082 6.51978511,10.7679199 7.42518723,8.44092773 C4.00317021,12.1289941 1.8901,17.0649316 1.8901,22.5 C1.8901,33.8726953 11.0733149,43.1250293 22.3610511,43.1250293 C28.8091298,43.1250293 34.9827702,40.3417969 38.717434,35.8072559 L36.5133787,34.171084 C33.487317,35.6908887 30.0316277,36.5625 26.4755319,36.5625 Z" id="Path" fill="#000000" opacity="0.1"></path>
            <ellipse id="Oval" fill="#303C42" cx="21.4305255" cy="10.3124707" rx="2.79148936" ry="2.8125"></ellipse>
            <path d="M23.9294319,22.5 L40.592966,10.1293945 C40.7910745,9.98200195 40.9237574,9.76042969 40.9600468,9.51416016 C40.9982553,9.26789062 40.9345745,9.01705078 40.7892426,8.81745117 C36.7310277,3.29589844 29.8431149,0 22.3610511,0 C10.046483,0 0.0291361702,10.0937109 0.0291361702,22.5 C0.0291361702,34.9062891 10.046483,45 22.3610511,45 C29.8432021,45 36.7310277,41.7041016 40.7892426,36.1825488 C40.9346617,35.9829492 40.9982553,35.7321094 40.9600468,35.4858398 C40.9236702,35.2395703 40.7909872,35.017998 40.592966,34.8706055 L23.9294319,22.5 Z" id="Path" fill="url(#linearGradient-1)"></path>
        </g>
    </g>
</svg>